<?xml version="1.0" standalone="yes"?>
<svg width="512" height="512">
<path style="fill:#ffffff; stroke:none;" d="M0 0L0 234L1 234C1.06015 143.174 72.7504 57.4208 152 21.6944C176.964 10.4403 206.354 1.01822 234 1L212 0L165 0L0 0z"/>
<path style="fill:#65b1ef; stroke:none;" d="M65 85C73.819 82.1849 80.6486 74.5311 88 69.1551C90.3842 67.4116 94.5536 63.5831 97.7932 65.1613C102.932 67.6648 94.9359 73.2611 93 74.7893C84.7724 81.2842 72.2768 85.7678 65.3225 93.3789C59.2831 99.9887 69.1802 102.13 74 101L72 112C75.8873 109.754 77.134 105.324 80.108 102C86.9272 94.3776 94.3015 87.7903 101.335 80.6744C105.222 76.7414 112.42 69.1026 114 79L129 76C125.228 83.0686 127.919 88.5573 136 89C132.064 96.2562 114.874 101.38 115 109C107.04 108.636 93.9399 102.645 93 115L101 111L101 117L109 119C105.356 125.029 100.087 128.632 93 129L93 123C81.9796 123.74 79.8278 133.741 73.6713 140.985C69.0502 146.421 60.7105 147.58 56.7431 153.188C54.3032 156.637 56.4436 160.422 54.8835 163.985C52.7203 168.926 46.106 175.72 42.4715 179.891C36.2657 187.014 24.2615 183.705 23 195L18 193C12.523 206.173 6.6623 219.506 6 234L20 220C19.9844 225.667 17.2445 232.558 18.3573 238C19.2109 242.175 23.1364 244.692 23.8557 249C24.5673 253.262 23.6155 261.1 27.6528 263.968C35.1296 269.281 42.9861 256.255 50 256.598C65.1813 257.341 70.4782 268.465 81.0401 276.362C90.6005 283.51 106.359 279.809 108.657 295C109.203 298.616 108.156 302.372 108 306C104.044 306.305 102.384 307.232 101 311C105.696 309.35 108.405 307.807 112 312C120.787 308.822 122.68 313.369 130.17 316.404C135.049 318.382 141.122 316.581 145.856 318.603C149.253 320.054 150.876 324.606 154.019 326.757C158.015 329.491 165.888 332.264 166.173 338.004C166.43 343.194 160.671 350.113 158.814 355C154.331 366.8 158.108 383.772 150.348 393.895C145.797 399.832 137.392 399.038 132.652 404.479C126.244 411.834 129.913 430.091 118 431L120 438C110.005 438.548 108.388 446.817 112.055 455C115.91 463.604 123.273 467.485 131 472C123.328 473.599 117.496 467.715 112 462.999C98.1171 451.086 87.3637 436.646 79.7708 420C74.0528 407.464 72.8113 392.791 65.5316 381C60.7807 373.305 53.2193 367.695 48.4684 360C43.6473 352.192 41.7373 342.939 37.1235 335C34.3854 330.289 29.446 326.222 27.7431 321C26.3063 316.594 29.6886 314.05 30.1667 310C30.5327 306.9 28.2841 304.157 28.4082 301C28.6969 293.651 33.4324 285.78 30.4005 278.285C24.3976 263.447 9.76989 251.953 4 237C-3.48687 242.117 -0.000532582 259.717 0 268C0.00210267 300.701 9.64123 333.27 22.5756 363C66.6324 464.267 178.689 523.842 287 510.715C389.989 498.232 477.701 422.588 504.116 322C513.181 287.481 515.363 250.788 501.792 217C497.522 206.366 489.649 202.728 481 196.335C477.223 193.543 472.346 189.316 467.229 191.604C462.528 193.707 465.234 199.147 468.109 201.501C477.118 208.878 492.252 209.991 488.917 226C486.197 239.052 471.285 240.472 464 250L432 186L430 186C426.845 199.254 433.943 207.336 438.648 219C440.583 223.797 440.249 229.169 442.14 234C444.318 239.561 448.974 244.132 452.34 249C458.367 257.715 466.037 267.236 477 260C462.023 296.516 450.84 337.218 430.189 371C423.883 381.316 424.452 392.801 414 400C419.39 412.744 406.262 413.234 398 418.269C392.765 421.458 388.586 425.825 384 429.816C381.081 432.356 373.609 438.768 369.563 435.353C364.846 431.372 362.826 417.851 361.141 412C357.745 400.205 350.329 386.458 351.094 374C351.671 364.599 356.775 355.948 359.255 347C362.402 335.642 361.428 321.506 348 318L350 310L345 311C347.342 304.718 350.702 295.444 343.891 290.603C337.812 286.283 326.582 291.482 327 280C316.221 280 305.312 281.041 295 284.344C287.296 286.812 279.021 292.168 271 288.16C257.672 281.502 241.349 261.309 240.108 246C239.541 239.002 243.699 232.898 243.87 226C244.042 219.026 238.964 213.974 241.88 207C247.768 192.922 259.778 185.97 269.683 175.486C275.909 168.896 275.412 161.176 285 156.378C296.676 150.536 311.431 151.977 324 149.92C328.712 149.149 336.399 146.978 340.981 148.618C346.095 150.449 346.141 156.271 349.303 159.891C353.243 164.402 358.543 163.999 364 164C366.509 172.934 375.963 175.674 384 178L387 164L388 164C395.081 177.329 419.029 174.461 432 178C431.281 173.11 430.62 159.966 426.427 157.028C418.873 151.734 410.832 156.47 404 147L438 144L424 119L421 129C418.832 125.344 408.868 112.769 405.708 123.109C404.17 128.145 409.67 131.86 405.562 136.867C399.369 144.416 391.044 137.645 391 150L390 150L388 143L381 145L373 135L372 135C362.658 143.336 352.658 127.437 344 122.919C332.86 117.105 320.799 123.955 313.04 132.004C309.309 135.875 306.587 139.596 306 145C298.631 145.152 288.74 149.479 282.004 145.258C270.916 138.309 272.604 121.803 286 118.739C291.77 117.42 298.974 120.95 305 121C304.976 112.754 302.638 106.974 295 103C306.131 96.5046 318.468 91.9945 330 86.2469C333.042 84.731 340.309 82.8359 341.824 79.5864C345.893 70.8561 319.302 75.9526 326.608 63.0432C327.377 61.6847 328.781 60.5532 330.019 59.6489C331.832 58.3248 333.909 57.4691 336 56.696C354.617 49.8115 368.157 46.1656 387 55.2585C396.194 59.6954 402.909 61.9716 400 73C408.408 69.7622 416.495 69.2516 425 72.9661C431.539 75.8217 435.467 80.7763 443 81C424.647 54.9455 390.659 34.8107 362 22.1396C282.821 -12.8676 187.555 -6.94861 115 41.3333C97.2572 53.1403 77.396 67.4025 65 85z"/>
<path style="fill:#ffffff; stroke:none;" d="M278 0L278 1C368.812 1.05988 454.591 72.7767 490.306 152C501.556 176.956 510.982 206.367 511 234L512 234L512 0L278 0z"/>
<path style="fill:#94c7f1; stroke:none;" d="M276 16L276 17L285 17L276 16z"/>
<path style="fill:#e9eff4; stroke:none;" d="M161 34L161 35C164.727 34.9226 168.324 33.6872 171.985 33.6119C176.158 33.526 182.516 40.752 180.249 44.8958C177.573 49.7886 159.43 58.4705 175.015 64.3966C186.544 68.7802 192.101 55.612 201 52.0092C205.176 50.3186 209.786 51.3981 214 49.6366C219.82 47.2036 224.651 42.4653 231 41.3295C240.357 39.6557 249.595 41.4334 259 39L259 38L252 30C263.602 29.968 273.208 23.7153 283 18C272.815 13.7262 255.836 17.1684 245 17.9105C226.237 19.1954 205.26 16.0546 187 20.9236C177.391 23.4858 169.648 29.3974 161 34z"/>
<path style="fill:#8ec4f1; stroke:none;" d="M209 18L209 19L228 19L209 18z"/>
<path style="fill:#e9eff4; stroke:none;" d="M295 103C301.536 107.994 304.926 112.679 305 121C298.625 120.868 291.176 116.946 285.001 118.664C272.796 122.058 270.312 138.431 281.015 145.258C288.01 149.719 298.398 145.326 306 145C308.856 130.24 329.85 115.109 344 123.475C351.711 128.035 364.186 145.218 372 135L373 135L381 145L388 143L390 150L391 150C391.141 138.064 399.497 144.363 405.566 137.721C408.632 134.367 404.998 108.697 417.361 124.036C418.658 125.646 419.669 127.418 421 129L424 119L438 144C425.68 142.443 415.94 144.238 404 147C409.171 157.828 418.345 151.059 425.656 156.742C430.594 160.581 430.669 172.178 432 178C417.195 172.297 398.733 177.756 388 164L387 164L384 178C375.923 174.803 367.958 172.482 364 164C349.71 166.525 352.159 153.544 342.867 149.603C338.174 147.613 331.839 149.557 327 149.911C313.535 150.898 293.752 150.378 282 157.479C274.269 162.15 274.916 168.864 269.683 174.675C260.342 185.048 248.121 191.267 242.363 205C239.145 212.676 243.933 218.501 243.733 226C243.513 234.237 240.242 241.429 241.174 250C242.683 263.886 257.821 282.071 270 288.16C278.48 292.401 286.884 287.342 295 284.671C305.293 281.283 316.199 280.001 327 280C325.034 290.633 338.353 286.334 343.891 291.279C350.288 296.99 346.851 304.077 345 311L350 310L348 318C371.235 327.118 355.764 351.845 351.899 368C348.013 384.241 358.26 404.726 363.333 420C364.673 424.033 365.939 433.45 369.563 435.957C374.009 439.032 381.899 432.515 385 429.816C389.586 425.825 393.765 421.458 399 418.269C406.849 413.486 420.593 412.357 414 400C424.712 394.86 426.177 378.933 431.988 369C442.598 350.866 449.249 330.44 457 311C463.684 294.238 472.042 277.344 477 260C465.213 265.923 458.826 257.379 452.34 248C448.974 243.132 444.318 238.561 442.14 233C440.112 227.82 440.466 222.107 438.204 217C433.352 206.049 426.746 198.331 430 186L432 186L445.742 213L464 250C474.139 240.637 493.182 235.549 488.952 218C486.428 207.529 477.61 207.239 470.015 202.182C467.263 200.349 463.627 196.765 465.851 193.232C470.441 185.942 483.479 198.589 488 201.348C504.964 211.699 510.616 241.381 511 260L512 260C512 203.25 496.568 148.979 462.37 103C449.953 86.3041 423.098 60.8926 400 73C404.073 61.821 396.145 59.0683 387 54.7816C368.03 45.8894 353.626 49.8079 335 56.696C332.93 57.4615 330.827 58.2953 329.059 59.6489C317.911 68.181 330.931 71.5157 336.995 73.8935C339.446 74.8546 342.999 77.5246 340.534 80.3017C330.123 92.029 307.183 92.907 295 103M237 57C243.364 58.8803 254.674 58.3866 257 51C249.888 49.4543 242.503 52.4402 237 57M138 59L145 59C144.828 51.9253 139.121 48.0001 132.228 52.179C129.472 53.8499 128.989 57.3333 126.698 59.4553C124.714 61.2933 121.452 62.0909 120.752 65.0532C118.99 72.5006 129.5 69.7738 132.96 68.7006C137.539 67.2802 137.9 63.1501 138 59M0 239L4 237C8.30479 252.771 24.4723 264.136 30.4005 279.17C33.2535 286.405 28.5547 293.887 28.2176 301C28.0706 304.102 29.9849 306.965 29.5864 310C29.0076 314.408 26.0567 317.253 27.7284 322C29.5695 327.228 34.3579 331.241 37.1235 336C41.7373 343.939 43.6473 353.192 48.4684 361C53.4214 369.022 61.4033 374.806 66.1204 383C73.1847 395.271 74.7184 410.168 80.706 423C88.099 438.843 98.6896 452.568 112 463.866C117.493 468.528 123.438 474.151 131 472C127.91 469.437 124.184 467.824 121.015 465.319C112.728 458.771 102.875 439.908 120 438L118 431C130 430.606 126.481 412.834 132.652 405.304C137.3 399.632 145.751 400.42 150.348 394.787C158.083 385.309 154.337 368.282 158.436 357C160.595 351.057 166.068 344.425 165.897 338.004C165.701 330.601 156.729 328.835 152.144 324.622C149.962 322.617 148.881 319.196 145.856 318.318C141.209 316.968 135.732 319.306 131.209 317.397C123.58 314.177 121.554 307.408 112 312C109.199 306.939 105.408 308.788 101 311L108 306C108 299.912 109.552 291.349 105.347 286.329C99.82 279.731 88.853 281.357 82.0147 276.362C70.8288 268.191 65.7751 257.442 50 256.355C42.7337 255.854 35.7306 268.262 28.3943 263.933C23.6524 261.135 24.6236 252.598 23.8557 248C23.1429 243.731 19.1112 241.189 18.4884 237C17.7159 231.803 19.9964 225.407 20 220L6 234L18 193L23 195C25.2081 184.088 36.1597 187.472 42.4715 180.772C46.2451 176.767 52.5714 169.806 54.9583 164.961C56.8989 161.021 54.3588 156.923 57.4375 153.188C61.9813 147.677 69.8472 146.804 74.4707 140.985C80.1372 133.852 82.6991 124.377 93 123L93 129C100.164 128.832 106.21 125.887 109 119L101 118L101 111L93 115C94.8599 103.055 106.918 108.828 115 109L114 106C121.678 102.786 133.073 97.2347 136 89C127.874 88.0944 125.536 83.0172 129 76L114 79C113.216 68.9324 105.326 75.6012 101.335 79.8295C94.5135 87.0567 86.8717 93.4643 80.108 101.001C76.9686 104.499 75.5356 108.915 72 112L74 101C68.188 102.01 59.9367 98.5374 67.0633 92.6096C75.5692 85.5344 86.3031 81.0631 94.9954 73.9962C97.2083 72.197 103.526 66.677 97.8472 64.6582C93.4965 63.1115 88.1122 68.2787 85 70.6543C74.2805 78.8366 65.2367 85.9216 56.5579 95.9606C23.0523 134.718 2.3456 187.669 0 239z"/>
<path style="fill:#a5cff1; stroke:none;" d="M126 80L126 84L127 84L126 80z"/>
<path style="fill:#9eccf1; stroke:none;" d="M440 81L440 82L444 82L440 81z"/>
<path style="fill:#9fccf1; stroke:none;" d="M60 90L57 95L60 90z"/>
<path style="fill:#b3d6f2; stroke:none;" d="M56 95L53 100L56 95z"/>
<path style="fill:#e9eff4; stroke:none;" d="M115 109C121.377 116.226 130.96 111.525 136 105C127.216 104.307 122.724 104.182 115 109z"/>
<path style="fill:#a4cef1; stroke:none;" d="M48 105L47 108L48 105z"/>
<path style="fill:#a8d0f2; stroke:none;" d="M46 108L45 111L46 108z"/>
<path style="fill:#afd4f2; stroke:none;" d="M44 111L43 114L44 111z"/>
<path style="fill:#add3f2; stroke:none;" d="M101 117L101 118L106 118L101 117z"/>
<path style="fill:#a5cff1; stroke:none;" d="M332 120L332 121L338 121L332 120z"/>
<path style="fill:#9dcbf1; stroke:none;" d="M35 125L34 128L35 125z"/>
<path style="fill:#65b1ef; stroke:none;" d="M466 155L470 154L456.577 140.61L454 126C436.066 122.037 454.839 145.477 456.258 149.039C457.871 153.09 456.493 157.212 459.434 160.906C466.98 170.383 469.894 163.009 466 155z"/>
<path style="fill:#a9d1f2; stroke:none;" d="M31 132L30 135L31 132z"/>
<path style="fill:#bddaf2; stroke:none;" d="M335 148L335 149L343 149L335 148z"/>
<path style="fill:#acd2f2; stroke:none;" d="M326 149L326 150L331 150L326 149z"/>
<path style="fill:#a3cef1; stroke:none;" d="M308 151L308 152L313 152L308 151z"/>
<path style="fill:#aed3f2; stroke:none;" d="M300 152L300 153L305 153L300 152z"/>
<path style="fill:#99caf1; stroke:none;" d="M415 155L415 156L425 156L415 155z"/>
<path style="fill:#85c0f0; stroke:none;" d="M16 164L15 168L16 168L16 164z"/>
<path style="fill:#a5cff1; stroke:none;" d="M356 164L356 165L362 165L356 164z"/>
<path style="fill:#aed3f2; stroke:none;" d="M428 190L428 196L429 196L428 190z"/>
<path style="fill:#afd4f2; stroke:none;" d="M468 190L468 191L472 191L468 190z"/>
<path style="fill:#acd2f2; stroke:none;" d="M5 201L4 210L5 210L5 201z"/>
<path style="fill:#9fccf1; stroke:none;" d="M240 210L240 215L241 215L240 210z"/>
<path style="fill:#acd3f2; stroke:none;" d="M2 216L2 223L3 223L2 216z"/>
<path style="fill:#99c9f1; stroke:none;" d="M1 224L1 231L2 231L1 224z"/>
<path style="fill:#b0d4f2; stroke:none;" d="M240 239L240 250L241 250L240 239z"/>
<path style="fill:#ffffff; stroke:none;" d="M0 278L0 512L234 512L234 511C146.757 510.942 59.5008 442.643 24.3086 366C15.5755 346.981 9.02703 327.469 4.66127 307C2.7424 298.003 3.48414 286.3 0 278M511 278C510.982 305.633 501.556 335.044 490.306 360C454.591 439.224 368.812 510.94 278 511L278 512L512 512L512 347L512 300L511 278z"/>
<path style="fill:#a1cdf1; stroke:none;" d="M331 288L331 289L340 289L331 288z"/>
<path style="fill:#a5cff1; stroke:none;" d="M108 293L108 301L109 301L108 293z"/>
<path style="fill:#b9d9f2; stroke:none;" d="M129 317L129 318L137 318L129 317z"/>
<path style="fill:#abd2f2; stroke:none;" d="M166 336L166 340L167 340L166 336z"/>
<path style="fill:#e9eff4; stroke:none;" d="M466 345C464.632 349.288 464.063 353.466 460.786 356.867C458.232 359.519 453.018 360.643 451.643 364.214C450.438 367.342 452.215 370.746 450.896 374C449.103 378.424 444.019 381.825 444.257 386.981C444.635 395.179 457.988 392.046 461.347 387.856C465.645 382.494 463.208 375.21 464.329 369C465.328 363.468 472.107 359.927 472.407 354.91C472.608 351.552 469.507 347.836 468 345L466 345z"/>
<path style="fill:#9eccf1; stroke:none;" d="M464 347L464 352L465 352L464 347z"/>
</svg>
